<?xml version="1.0" encoding="utf-8"?>
<!-- Generator: Adobe Illustrator 21.0.0, SVG Export Plug-In . SVG Version: 6.00 Build 0)  -->
<svg version="1.1" id="Layer_1" xmlns="http://www.w3.org/2000/svg" xmlns:xlink="http://www.w3.org/1999/xlink" x="0px" y="0px"
	 viewBox="0 0 1467.3 231.1" style="enable-background:new 0 0 1467.3 231.1;" xml:space="preserve">
<path d="M136,108.1c0,0-13.8-8.6-22.4-11.9c0,0-26.5-12.3-31.8-18.1c0,0-10.3-9.8-4.3-21c0,0,2.5-7.4,13.4-7.4
	c0,0,14.2,0.8,14.2,12.5v16.5h51L156,54.3c0,0,3.9-39.8-60-41.5c0,0-4.8-0.3-11.9,0c0,0-38.7,2.1-52.6,23.3
	c-0.1,0.1-0.2,0.3-0.3,0.4c0,0-5.6,6-5.6,27.1v15.2c0,0-0.6,17.5,8.4,28.8c0,0,5.1,7.4,17.5,15.6c0,0,25.3,13.6,40.5,21.4
	c0,0,15.4,8.8,13.3,22.7c0,0-1.3,14.3-16.1,13.7c0,0-13.6-0.6-13.6-14.6v-16.5H21.5V174c0,0-1.5,45.8,68.3,45.8
	c0,0,66.7,1.4,69.8-47v-19.5C159.6,153.3,161.9,123.7,136,108.1L136,108.1z M971.5,164.7c0,0,0.7,16-14.2,16c0,0-15.5,0.8-15.5-15.6
	l-0.1-146.4h-55.4v145.2c0,0-5.7,55,71.8,55c0,0,67.4,0.8,67.4-52.4V18.7h-54L971.5,164.7z M1144.4,94.7l53.6,118.4h60.3V18.5h-51.2
	l3.6,118.4h-2.1l-51.9-118.4h-62v194.6h50.5l-3.1-118.4L1144.4,94.7z M1380.1,105.5V134h13.9v30.6c0,15-12.8,15.3-12.8,15.3
	c-15.6,0-14.9-14.2-14.9-14.2v-106c0-10.9,13.7-11.5,13.7-11.5c13.4,0,13.4,13,13.4,13v16.1h51c1.8-31.5-4.5-39.1-4.5-39.1
	c-12.7-28.5-60.6-26.9-60.6-26.9c-73.7,0-65.5,56.5-65.5,56.5v102.5c1.5,53,74.2,47.6,75.4,47.6c32.3-3.6,42-13.8,42-13.8
	c9.1-6.7,11.3-15.9,11.3-15.9c2.6-5.4,3.3-22.5,3.3-22.5v-60.2L1380.1,105.5L1380.1,105.5z M327.2,19.3h-85.6L208,212.9h54.2
	l19.9-150.1h4.5l19.9,150.1h54.2L327.2,19.3z M465.9,67.2h4l26.7,145.9h53L576,67.3h3.5l1.2,145.9h50.7l-5.5-194.6h-84.3
	l-17.1,106.9h-4l-16.3-106h-85.1l-4.3,193.6h50.4L465.9,67.2z M802.5,108.1c0,0-13.9-8.6-22.4-11.9c0,0-26.5-12.3-31.8-18.2
	c0,0-10.3-9.7-4.3-21c0,0,2.5-7.4,13.5-7.4c0,0,14.2,0.8,14.2,12.5v16.5h51l-0.1-24.3c0,0,3.9-39.8-60-41.5c0,0-50.3-3.3-64.7,23.8
	c0,0-5.7,6-5.7,27.1v15.2c0,0-0.6,17.6,8.4,28.9c0,0,5.1,7.4,17.5,15.6c0,0,25.3,13.6,40.5,21.5c0,0,15.3,8.8,13.3,22.7
	c0,0-1.2,14.3-16.1,13.7c0,0-13.6-0.6-13.6-14.6v-16.5H688V174c0,0-1.5,45.8,68.3,45.8c0,0,66.7,1.4,69.8-47v-19.5
	C826,153.3,828.4,123.7,802.5,108.1L802.5,108.1z"/>
</svg>
